<svg xmlns="http://www.w3.org/2000/svg" viewBox="0 0 32 32" width="32" height="32">
  <!--
    AI 日记 站点图标。

    ⚠️ 为什么是 SVG 而不是 .ico / .png：
      1. 纯文本、可读可改，不需要二进制编辑工具；
      2. 体积极小（几百字节），不占首屏；
      3. 零外部依赖 —— 项目一贯的取舍（见美术风格文件里"刻意不引外部字体"同理）。

    配色取自「森语时光」设计 Token：
      底色 #F7F4EC = --c-mist 晨雾白
      叶片 #A8BFA5 = --c-sage 鼠尾草绿
      叶脉 #6F8F6A = --c-moss 苔藓绿
  -->
  <rect width="32" height="32" rx="7" fill="#F7F4EC"/>
  <path d="M16 6c5.2 3.4 7.6 8 7.6 13.2 0 1.6-.3 3-.8 4.2-1.4-5-4.4-8.4-8.8-10.2" fill="#A8BFA5"/>
  <path d="M16 6c-5.2 3.4-7.6 8-7.6 13.2 0 3.4 1.5 6.2 4 7.9 1.2-1.1 2.4-1.9 3.6-2.4-2.2-1.4-3.6-3.6-3.6-6.4 0-2.6 1.2-5 3.6-6.9" fill="#6F8F6A" opacity=".55"/>
  <path d="M16 25.4V13" stroke="#FFF9F0" stroke-width="1.4" stroke-linecap="round" opacity=".8"/>
</svg>
